# Blender v2.80 (sub 75) OBJ File: 'New Dice.blend'
# www.blender.org
mtllib D4.mtl
o D4.001_D4.001_Cube.001
v -0.691011 -0.465330 0.360878
v -0.688648 -0.446200 0.362242
v -0.030613 -0.446199 -0.777508
v -0.691010 -0.438537 0.379824
v -0.032975 0.636030 -0.000093
v -0.030613 0.628367 -0.017675
v -0.016567 0.636030 -0.028512
v -0.016568 -0.438537 -0.788345
v -0.686022 -0.481549 0.363758
v -0.032976 -0.465330 -0.778872
v -0.699653 -0.462863 0.385808
v -0.686022 -0.435846 0.396075
v -0.027987 0.638721 0.016158
v -0.015707 -0.462864 -0.798821
v 0.000000 0.638721 -0.032318
v 0.000000 -0.435846 -0.792150
v -0.011980 -0.481059 -0.802330
v -0.027988 -0.481549 -0.775991
v -0.674443 -0.492385 0.370444
v -0.700828 -0.481059 0.390790
v -0.011980 0.663390 0.006916
v -0.700828 -0.461495 0.404623
v -0.674443 -0.438537 0.408520
v 0.000000 0.663390 -0.013834
v 0.000000 -0.461495 -0.809247
v 0.016568 0.636030 -0.028512
v 0.000000 -0.488513 -0.789753
v -0.016408 -0.492386 -0.769307
v -0.658035 -0.496191 0.379917
v -0.683946 -0.488512 0.394876
v 0.000000 0.666609 -0.000000
v -0.016408 0.636030 0.028603
v 0.000000 0.654016 0.018136
v -0.683946 -0.462863 0.413014
v -0.658035 -0.446200 0.415266
v 0.000000 0.628367 0.035349
v 0.000000 -0.475611 -0.807671
v 0.016568 -0.438537 -0.788345
v 0.015707 -0.462864 -0.798821
v 0.015707 0.654016 -0.009068
v 0.030614 0.628367 -0.017675
v 0.011980 -0.481059 -0.802330
v 0.016408 -0.492386 -0.769306
v 0.000000 -0.496191 -0.759833
v 0.674443 -0.492386 0.370444
v 0.658035 -0.496192 0.379916
v 0.658034 -0.492386 0.398863
v -0.658035 -0.492385 0.398863
v -0.688849 -0.481059 0.411541
v -0.699464 -0.475611 0.403836
v 0.011981 0.663390 0.006916
v 0.016408 0.636030 0.028603
v -0.658035 -0.465330 0.417994
v 0.674443 -0.438537 0.408520
v 0.658035 -0.465330 0.417994
v 0.658035 -0.446200 0.415266
v 0.032975 -0.465330 -0.778871
v 0.032976 0.636030 -0.000093
v 0.030614 -0.446199 -0.777508
v 0.688648 -0.446200 0.362242
v 0.691010 -0.438537 0.379824
v 0.027987 -0.481549 -0.775991
v 0.686022 -0.481549 0.363758
v 0.658034 -0.481549 0.412234
v -0.658035 -0.481549 0.412234
v 0.027988 0.638721 0.016158
v 0.683946 -0.462864 0.413014
v 0.691010 -0.465330 0.360878
v 0.699653 -0.462864 0.385808
v 0.686022 -0.435846 0.396075
v 0.700828 -0.481059 0.390790
v 0.683946 -0.488513 0.394876
v 0.688848 -0.481059 0.411541
v 0.700828 -0.461495 0.404623
v -0.015706 0.654016 -0.009068
v 0.699463 -0.475611 0.403835
vt 0.664654 0.458287
vt 0.664203 0.461393
vt 0.661288 0.460230
vt 0.525370 0.384118
vt 0.660343 0.462049
vt 0.661290 0.300670
vt 0.664206 0.299506
vt 0.664657 0.302614
vt 0.666359 0.298743
vt 0.666706 0.302522
vt 0.666702 0.458379
vt 0.666355 0.462155
vt 0.526473 0.382391
vt 0.522274 0.381930
vt 0.663787 0.463638
vt 0.522274 0.378966
vt 0.525371 0.376778
vt 0.526473 0.378505
vt 0.663789 0.297260
vt 0.666355 0.291610
vt 0.664204 0.290849
vt 0.664654 0.287743
vt 0.664653 0.132072
vt 0.664203 0.128965
vt 0.666356 0.128203
vt 0.521330 0.380448
vt 0.513601 0.374960
vt 0.516516 0.376123
vt 0.516100 0.378367
vt 0.374579 0.296671
vt 0.376315 0.295187
vt 0.378781 0.297131
vt 0.665546 0.297184
vt 0.659241 0.297122
vt 0.661707 0.295179
vt 0.663444 0.296662
vt 0.521928 0.378366
vt 0.521512 0.376122
vt 0.524427 0.374960
vt 0.663788 0.293093
vt 0.661289 0.289686
vt 0.662390 0.287706
vt 0.661287 0.130128
vt 0.663787 0.126720
vt 0.665544 0.126644
vt 0.518667 0.376884
vt 0.517855 0.378443
vt 0.374579 0.293705
vt 0.516966 0.373017
vt 0.378781 0.293243
vt 0.379946 0.295187
vt 0.663444 0.293696
vt 0.664388 0.295179
vt 0.519361 0.376884
vt 0.659241 0.293235
vt 0.521061 0.373016
vt 0.523326 0.372979
vt 0.660345 0.291506
vt 0.526472 0.207966
vt 0.527637 0.209910
vt 0.526472 0.211854
vt 0.660343 0.128309
vt 0.519013 0.373109
vt 0.377677 0.291515
vt 0.513594 0.215402
vt 0.516510 0.214238
vt 0.516961 0.217345
vt 0.521057 0.217346
vt 0.521507 0.214238
vt 0.524424 0.215401
vt 0.525368 0.213582
vt 0.522269 0.211394
vt 0.524006 0.209910
vt 0.522269 0.208427
vt 0.518663 0.213476
vt 0.516094 0.211993
vt 0.521923 0.211993
vt 0.519009 0.217254
vt 0.519354 0.213476
vt 0.514701 0.372980
vt 0.662391 0.302651
vt 0.524009 0.380448
vt 0.660345 0.298850
vt 0.666701 0.287835
vt 0.666701 0.131980
vt 0.665543 0.463715
vt 0.512657 0.376780
vt 0.377678 0.298858
vt 0.514695 0.217382
vt 0.665544 0.293169
vt 0.662388 0.132109
vt 0.373634 0.295188
vt 0.520173 0.378443
vt 0.658076 0.295178
vt 0.523323 0.217382
vt 0.525368 0.206238
vt 0.512650 0.213582
vt 0.521325 0.209910
vt 0.517851 0.211917
vt 0.520167 0.211917
vt 0.527638 0.380448
vt 0.662388 0.458249
vn -0.9000 -0.0643 -0.4311
vn -0.9676 0.1458 -0.2061
vn -0.9000 0.4279 -0.0831
vn -0.8094 0.5665 0.1546
vn -0.8226 0.5449 0.1623
vn -0.5220 0.4279 -0.7378
vn -0.6623 0.1458 -0.7349
vn -0.8234 -0.0642 -0.5639
vn -0.6430 -0.0783 -0.7619
vn -0.8094 -0.3347 -0.4826
vn -0.8226 -0.3347 -0.4597
vn -0.9813 -0.0784 -0.1759
vn -0.8234 0.5530 -0.1274
vn -0.6430 0.7444 -0.1801
vn -0.9813 0.1920 0.0152
vn -0.4775 0.7444 -0.4668
vn -0.2708 0.5665 -0.7783
vn -0.5220 0.5530 -0.6494
vn -0.4774 0.1920 -0.8574
vn -0.1655 -0.8580 -0.4862
vn 0.0000 -0.9358 -0.3525
vn -0.3014 -0.9167 -0.2625
vn -0.3780 -0.9167 -0.1298
vn -0.3053 -0.9358 0.1762
vn -0.5038 -0.8580 0.0997
vn -0.3655 0.9066 -0.2110
vn -0.3014 0.5530 0.7767
vn -0.0000 0.6443 0.7648
vn -0.1655 0.7444 0.6469
vn -0.5039 0.1920 0.8422
vn -0.3053 0.1458 0.9410
vn -0.3780 0.4279 0.8210
vn -0.3654 -0.1033 -0.9251
vn 0.5220 0.4279 -0.7379
vn 0.6623 0.1458 -0.7349
vn 0.4775 0.1920 -0.8574
vn 0.4774 0.7444 -0.4668
vn 0.6623 0.6443 -0.3824
vn 0.5220 0.5530 -0.6494
vn 0.1655 -0.8580 -0.4862
vn 0.3014 -0.9167 -0.2625
vn 0.0000 -0.9846 -0.1746
vn -0.0766 -0.9167 0.3922
vn -0.3383 -0.8580 0.3864
vn -0.6184 -0.7001 0.3570
vn 0.1655 0.7444 0.6469
vn 0.0000 0.9066 0.4220
vn -0.3383 -0.0783 0.9378
vn 0.3014 0.5530 0.7768
vn -0.0766 -0.0642 0.9950
vn -0.1512 0.2459 0.9574
vn 0.6430 -0.0783 -0.7619
vn 0.3655 -0.1033 -0.9251
vn 0.6430 0.7444 -0.1801
vn 0.8234 -0.0643 -0.5639
vn 0.8234 0.5530 -0.1274
vn 0.7536 0.4928 -0.4351
vn 0.5386 -0.7768 -0.3263
vn 0.0766 -0.9167 0.3922
vn 0.1512 -0.9846 0.0873
vn 0.3780 -0.9167 -0.1298
vn -0.0132 -0.7768 0.6296
vn 0.5386 0.5665 0.6237
vn -0.0132 -0.3346 0.9422
vn 0.0766 -0.0642 0.9950
vn 0.3053 0.1458 0.9410
vn 0.3780 0.4279 0.8210
vn 0.8094 -0.3346 -0.4826
vn 0.8094 0.5665 0.1546
vn 0.9000 0.4279 -0.0831
vn 0.9676 0.1458 -0.2061
vn 0.9000 -0.0642 -0.4311
vn 0.5519 -0.7768 -0.3033
vn 0.5039 -0.8580 0.0998
vn 0.3053 -0.9358 0.1763
vn 0.3383 -0.8580 0.3865
vn 0.5039 0.1920 0.8422
vn 0.3383 -0.0784 0.9378
vn 0.9813 -0.0784 -0.1759
vn 0.8226 -0.3346 -0.4597
vn 0.8226 0.5449 0.1623
vn 0.9813 0.1920 0.0153
vn -0.0000 0.4928 0.8701
vn -0.7536 0.2459 -0.6096
vn -0.6623 0.6443 -0.3824
vn -0.2708 0.5449 -0.7936
vn -0.5386 -0.7768 -0.3262
vn -0.5519 -0.7768 -0.3033
vn -0.9839 -0.1033 0.1460
vn -0.5386 0.5665 0.6236
vn -0.5519 0.5449 0.6313
vn 0.2708 0.5449 -0.7936
vn 0.2708 0.5665 -0.7783
vn 0.1512 0.2459 0.9574
vn 0.0000 -0.7000 -0.7141
vn -0.1512 -0.9846 0.0873
vn -0.6184 -0.1032 0.7790
vn 0.3655 0.9066 -0.2110
vn 0.7536 0.2459 -0.6097
vn 0.9048 0.2459 -0.3478
vn 0.0132 -0.7768 0.6296
vn 0.5519 0.5449 0.6313
vn 0.0132 -0.3346 0.9423
vn 0.6184 -0.7000 0.3571
vn 0.6185 -0.1033 0.7790
vn 0.9839 -0.1033 0.1461
vn -0.7536 0.4928 -0.4351
vn -0.9047 0.2459 -0.3478
usemtl Dice
s 1
f 1/1/1 11/2/2 4/3/3
s 2
f 13/4/4 4/3/3 12/5/5
s 3
f 8/6/6 14/7/7 10/8/8
s 4
f 17/9/9 18/10/10 10/8/8
s 5
f 1/1/1 9/11/11 20/12/12
s 6
f 5/13/13 13/4/4 21/14/14
s 7
f 22/15/15 12/5/5 4/3/3
s 8
f 24/16/16 15/17/17 7/18/18
s 9
f 25/19/19 14/7/7 8/6/6
s 10
f 17/20/20 27/21/21 28/22/22
s 11
f 19/23/23 30/24/24 20/25/25
s 12
f 21/14/14 31/26/26 24/16/16
s 13
f 22/15/15 11/2/2 20/12/12
s 14
f 32/27/27 33/28/28 21/29/29
s 15
f 22/30/30 34/31/31 23/32/32
s 16
f 25/19/19 37/33/33 17/9/9
s 17
f 38/34/34 39/35/35 25/36/36
s 18
f 24/37/37 40/38/38 26/39/39
s 19
f 42/40/40 27/21/21 17/20/20
s 20
f 43/41/41 44/42/42 28/22/22
s 21
f 48/43/43 30/24/24 19/23/23
s 22
f 49/44/44 50/45/45 20/25/25
s 23
f 51/46/46 31/47/47 21/29/29
s 24
f 49/48/48 34/31/31 22/30/30
s 25
f 52/49/49 33/28/28 32/27/27
s 26
f 53/50/50 35/51/51 23/32/32
s 27
f 42/52/52 37/53/53 25/36/36
s 28
f 51/54/54 40/38/38 24/37/37
s 29
f 57/55/55 39/35/35 38/34/34
s 30
f 58/56/56 41/57/57 26/39/39
s 31
f 42/40/40 62/58/58 43/41/41
s 32
f 47/59/59 46/60/60 45/61/61
s 33
f 48/43/43 65/62/62 49/44/44
s 34
f 52/49/49 66/63/63 51/46/46
s 35
f 49/48/48 65/64/64 53/50/50
s 36
f 55/65/65 67/66/66 54/67/67
s 37
f 57/55/55 62/58/68 42/52/52
s 38
f 51/54/54 66/63/69 58/56/56
s 39
f 61/68/70 69/69/71 68/70/72
s 40
f 45/61/61 63/71/73 71/72/74
s 41
f 47/59/59 72/73/75 73/74/76
s 42
f 54/67/67 67/66/66 74/75/77
s 43
f 73/76/78 67/66/66 55/65/65
s 44
f 71/77/79 63/71/80 68/70/72
s 45
f 61/68/70 70/78/81 74/79/82
s 46
f 73/74/76 72/73/75 71/72/74
s 47
f 74/75/77 67/66/66 73/76/78
s 48
f 71/77/79 69/69/71 74/79/82
s 49
f 36/80/83 23/32/32 35/51/51
s 50
f 3/81/84 8/6/6 10/8/8
s 51
f 75/82/85 7/18/18 5/13/13
s 52
f 14/7/7 17/9/9 10/8/8
s 53
f 11/2/2 1/1/1 20/12/12
s 54
f 75/82/85 5/13/13 21/14/14
s 55
f 11/2/2 22/15/15 4/3/3
s 56
f 75/82/85 24/16/16 7/18/18
s 57
f 16/83/86 25/19/19 8/6/6
s 58
f 18/84/87 17/20/20 28/22/22
s 59
f 9/85/88 19/23/23 20/25/25
s 60
f 75/82/85 21/14/14 24/16/16
s 61
f 50/86/89 22/15/15 20/12/12
s 62
f 13/87/90 32/27/27 21/29/29
s 63
f 12/88/91 22/30/30 23/32/32
s 64
f 14/7/7 25/19/19 17/9/9
s 65
f 16/83/92 38/34/34 25/36/36
s 66
f 15/17/93 24/37/37 26/39/39
s 67
f 54/67/67 56/89/94 55/65/65
s 68
f 27/21/21 43/41/41 28/22/22
s 69
f 37/90/95 42/40/40 17/20/20
s 70
f 29/91/96 48/43/43 19/23/23
s 71
f 30/24/24 49/44/44 20/25/25
s 72
f 33/28/28 51/46/46 21/29/29
s 73
f 50/92/97 49/48/48 22/30/30
s 74
f 36/80/83 52/49/49 32/27/27
s 75
f 34/31/31 53/50/50 23/32/32
s 76
f 39/35/35 42/52/52 25/36/36
s 77
f 31/93/98 51/54/54 24/37/37
s 78
f 59/94/99 57/55/55 38/34/34
s 79
f 40/38/38 58/56/56 26/39/39
s 80
f 27/21/21 42/40/40 43/41/41
s 81
f 72/73/75 47/59/59 45/61/61
s 82
f 30/24/24 48/43/43 49/44/44
s 83
f 33/28/28 52/49/49 51/46/46
s 84
f 34/31/31 49/48/48 53/50/50
s 85
f 39/35/35 57/55/55 42/52/52
s 86
f 40/38/38 51/54/54 58/56/56
s 87
f 60/95/100 61/68/70 68/70/72
s 88
f 72/73/75 45/61/61 71/72/74
s 89
f 64/96/101 47/59/59 73/74/76
s 90
f 70/78/102 54/67/67 74/75/77
s 91
f 64/97/103 73/76/78 55/65/65
s 92
f 69/69/71 71/77/79 68/70/72
s 93
f 69/69/71 61/68/70 74/79/82
s 94
f 76/98/104 73/74/76 71/72/74
s 95
f 76/99/105 74/75/77 73/76/78
s 96
f 76/100/106 71/77/79 74/79/82
s 97
f 26/39/39 16/83/92 15/17/93
s 98
f 16/83/86 7/18/18 15/17/17
s 99
f 8/6/6 6/101/107 7/18/18
s 100
f 70/78/81 58/56/56 66/63/69
s 101
f 52/49/49 70/78/102 66/63/63
s 102
f 4/3/3 2/102/108 1/1/1
s 103
f 10/8/8 2/102/108 3/81/84
s 104
f 19/23/23 18/84/87 28/22/22
s 105
f 44/42/42 19/23/23 28/22/22
s 106
f 63/71/80 57/55/55 68/70/72
s 107
f 57/55/55 60/95/100 68/70/72
s 108
f 6/101/107 5/13/13 7/18/18
s 109
f 59/94/99 26/39/39 41/57/57
s 110
f 6/101/107 4/3/3 5/13/13
s 111
f 32/27/27 12/88/91 23/32/32
s 112
f 1/1/1 18/10/10 9/11/11
s 113
f 53/50/50 56/89/94 35/51/51
s 114
f 48/43/43 64/96/101 65/62/62
s 115
f 64/97/103 53/50/50 65/64/64
s 116
f 29/91/96 47/59/59 48/43/43
s 117
f 56/89/94 36/80/83 35/51/51
s 118
f 56/89/94 52/49/49 36/80/83
s 119
f 61/68/70 41/57/57 58/56/56
s 120
f 43/41/41 46/60/60 44/42/42
s 121
f 63/71/73 43/41/41 62/58/58
s 122
f 46/60/60 29/91/96 44/42/42
s 123
f 60/95/100 59/94/99 41/57/57
s 124
f 3/81/84 2/102/108 6/101/107
s 125
f 13/4/4 5/13/13 4/3/3
s 126
f 36/80/83 32/27/27 23/32/32
s 127
f 26/39/39 38/34/34 16/83/92
s 128
f 16/83/86 8/6/6 7/18/18
s 129
f 8/6/6 3/81/84 6/101/107
s 130
f 70/78/81 61/68/70 58/56/56
s 131
f 52/49/49 54/67/67 70/78/102
s 132
f 10/8/8 1/1/1 2/102/108
s 133
f 19/23/23 9/85/88 18/84/87
s 134
f 44/42/42 29/91/96 19/23/23
s 135
f 63/71/80 62/58/68 57/55/55
s 136
f 57/55/55 59/94/99 60/95/100
s 137
f 59/94/99 38/34/34 26/39/39
s 138
f 6/101/107 2/102/108 4/3/3
s 139
f 32/27/27 13/87/90 12/88/91
s 140
f 1/1/1 10/8/8 18/10/10
s 141
f 53/50/50 55/65/65 56/89/94
s 142
f 48/43/43 47/59/59 64/96/101
s 143
f 64/97/103 55/65/65 53/50/50
s 144
f 29/91/96 46/60/60 47/59/59
s 145
f 56/89/94 54/67/67 52/49/49
s 146
f 61/68/70 60/95/100 41/57/57
s 147
f 43/41/41 45/61/61 46/60/60
s 148
f 63/71/73 45/61/61 43/41/41
